# xmcd
#
# Track frame offsets:
#   150
#   12986
#   30486
#   44770
#   64663
#   80456
#   96843
#   109988
#   124709
#   136238
#   151663
#   169638
#
# Disc length: 2848 seconds
#
# Revision: 0
# Processed by: cddbd v1.5.1PL2 Copyright (c) Steve Scherf et al.
# Submitted via: GXTranscoder 2.0.1939
#
DISCID=930b1e0c
DTITLE=charli badulaque - fiesta guena
DYEAR=1900
DGENRE=Blues
TTITLE0=n
TTITLE1=n
TTITLE2=n
TTITLE3=n
TTITLE4=n
TTITLE5=n
TTITLE6=n
TTITLE7=n
TTITLE8=n
TTITLE9=n
TTITLE10=n
TTITLE11=n
EXTD=
EXTT0=
EXTT1=
EXTT2=
EXTT3=
EXTT4=
EXTT5=
EXTT6=
EXTT7=
EXTT8=
EXTT9=
EXTT10=
EXTT11=
PLAYORDER=
